<?xml version="1.0" encoding="UTF-8"?>
<svg xmlns="http://www.w3.org/2000/svg" xmlns:xlink="http://www.w3.org/1999/xlink" width="23pt" height="11pt" viewBox="0 0 23 11" version="1.1">
<g id="surface1">
<path style=" stroke:none;fill-rule:nonzero;fill:rgb(0%,39.607843%,98.823529%);fill-opacity:1;" d="M 3 7.179688 C 2.945312 7.003906 2.890625 6.847656 2.832031 6.707031 C 2.785156 6.570312 2.738281 6.453125 2.699219 6.355469 C 2.484375 6.429688 2.246094 6.484375 1.992188 6.511719 C 1.992188 6.878906 2 7.191406 2.015625 7.449219 C 2.023438 7.609375 2.027344 7.746094 2.03125 7.859375 C 2.042969 7.96875 2.050781 8.0625 2.058594 8.144531 C 2.070312 8.222656 2.082031 8.296875 2.089844 8.359375 C 2.101562 8.425781 2.121094 8.492188 2.140625 8.554688 C 2.03125 8.640625 1.921875 8.707031 1.816406 8.746094 C 1.714844 8.785156 1.628906 8.8125 1.550781 8.832031 C 1.457031 8.855469 1.371094 8.859375 1.300781 8.847656 C 1.273438 8.769531 1.246094 8.683594 1.222656 8.589844 C 1.203125 8.503906 1.1875 8.382812 1.175781 8.230469 C 1.167969 8.082031 1.167969 7.890625 1.167969 7.652344 C 1.167969 7.417969 1.175781 7.117188 1.191406 6.75 C 1.195312 6.710938 1.199219 6.671875 1.199219 6.632812 C 1.199219 6.589844 1.203125 6.550781 1.207031 6.511719 C 1.15625 6.503906 1.105469 6.5 1.050781 6.492188 C 1 6.488281 0.949219 6.484375 0.898438 6.476562 C 0.867188 6.386719 0.84375 6.304688 0.832031 6.234375 C 0.820312 6.160156 0.816406 6.101562 0.816406 6.054688 C 0.816406 6 0.820312 5.953125 0.832031 5.917969 C 0.921875 5.933594 1.011719 5.945312 1.097656 5.945312 L 1.222656 5.945312 C 1.234375 5.703125 1.246094 5.460938 1.257812 5.214844 C 1.269531 4.960938 1.277344 4.71875 1.28125 4.484375 C 1.292969 4.242188 1.300781 4.015625 1.308594 3.804688 C 1.3125 3.585938 1.320312 3.390625 1.324219 3.210938 C 1.15625 3.324219 1.011719 3.476562 0.890625 3.65625 C 0.769531 3.839844 0.683594 4.054688 0.640625 4.292969 C 0.570312 4.28125 0.507812 4.25 0.457031 4.191406 C 0.40625 4.128906 0.367188 4.066406 0.332031 4 C 0.292969 3.925781 0.261719 3.84375 0.234375 3.753906 C 0.203125 3.644531 0.203125 3.535156 0.234375 3.425781 C 0.261719 3.3125 0.300781 3.207031 0.359375 3.109375 C 0.414062 3.003906 0.476562 2.917969 0.550781 2.839844 C 0.621094 2.761719 0.691406 2.699219 0.757812 2.652344 C 0.875 2.578125 0.992188 2.511719 1.117188 2.453125 C 1.242188 2.390625 1.386719 2.339844 1.542969 2.300781 C 1.601562 2.238281 1.667969 2.179688 1.742188 2.128906 C 1.820312 2.078125 1.890625 2.046875 1.957031 2.035156 C 2.050781 2.011719 2.105469 2.070312 2.117188 2.214844 C 2.167969 2.207031 2.21875 2.207031 2.273438 2.207031 C 2.332031 2.199219 2.390625 2.195312 2.449219 2.195312 C 2.660156 2.195312 2.878906 2.230469 3.109375 2.300781 C 3.335938 2.367188 3.542969 2.480469 3.734375 2.636719 C 3.929688 2.785156 4.085938 2.980469 4.207031 3.226562 C 4.332031 3.46875 4.390625 3.765625 4.390625 4.113281 C 4.390625 4.507812 4.300781 4.871094 4.117188 5.203125 C 3.9375 5.539062 3.683594 5.8125 3.351562 6.03125 C 3.390625 6.132812 3.4375 6.261719 3.5 6.417969 C 3.5625 6.570312 3.621094 6.746094 3.683594 6.941406 C 3.773438 7.179688 3.867188 7.40625 3.96875 7.621094 C 4.074219 7.824219 4.179688 8.007812 4.292969 8.160156 C 4.402344 8.316406 4.519531 8.4375 4.640625 8.53125 C 4.765625 8.628906 4.886719 8.683594 5.007812 8.703125 C 4.9375 8.816406 4.851562 8.898438 4.757812 8.941406 C 4.664062 8.988281 4.570312 9.019531 4.476562 9.027344 C 4.371094 9.046875 4.257812 9.046875 4.140625 9.027344 C 3.980469 8.996094 3.84375 8.914062 3.726562 8.789062 C 3.609375 8.664062 3.503906 8.511719 3.417969 8.332031 C 3.332031 8.15625 3.253906 7.964844 3.183594 7.765625 C 3.117188 7.558594 3.054688 7.363281 3 7.179688 Z M 2.03125 3.519531 C 2.03125 3.648438 2.03125 3.796875 2.023438 3.976562 C 2.019531 4.152344 2.011719 4.34375 2.007812 4.550781 C 2.007812 4.757812 2.003906 4.976562 2 5.203125 C 1.996094 5.429688 1.992188 5.652344 1.992188 5.875 C 2.140625 5.851562 2.304688 5.816406 2.484375 5.761719 C 2.667969 5.710938 2.835938 5.625 2.992188 5.503906 C 3.148438 5.386719 3.277344 5.226562 3.382812 5.023438 C 3.488281 4.824219 3.542969 4.566406 3.542969 4.25 C 3.542969 4.011719 3.5 3.808594 3.417969 3.640625 C 3.339844 3.46875 3.234375 3.332031 3.109375 3.226562 C 2.980469 3.121094 2.839844 3.042969 2.683594 2.996094 C 2.535156 2.945312 2.382812 2.917969 2.234375 2.917969 C 2.207031 2.917969 2.175781 2.917969 2.148438 2.917969 C 2.121094 2.917969 2.089844 2.921875 2.058594 2.925781 C 2.042969 3.109375 2.03125 3.308594 2.03125 3.519531 Z M 5.96875 8.160156 C 5.578125 8.160156 5.277344 8.027344 5.066406 7.757812 C 4.855469 7.488281 4.75 7.136719 4.75 6.699219 C 4.75 6.398438 4.792969 6.113281 4.875 5.847656 C 4.964844 5.582031 5.082031 5.347656 5.226562 5.152344 C 5.371094 4.957031 5.535156 4.808594 5.726562 4.699219 C 5.921875 4.582031 6.125 4.527344 6.335938 4.527344 C 6.539062 4.527344 6.714844 4.601562 6.859375 4.757812 C 7.003906 4.90625 7.078125 5.121094 7.078125 5.402344 C 7.078125 5.585938 7.039062 5.769531 6.960938 5.953125 C 6.882812 6.128906 6.777344 6.289062 6.652344 6.433594 C 6.527344 6.570312 6.394531 6.683594 6.242188 6.769531 C 6.09375 6.855469 5.949219 6.898438 5.808594 6.898438 C 5.71875 6.898438 5.644531 6.886719 5.585938 6.863281 C 5.523438 6.839844 5.46875 6.804688 5.417969 6.761719 C 5.433594 7.085938 5.503906 7.316406 5.625 7.449219 C 5.75 7.574219 5.90625 7.636719 6.101562 7.636719 C 6.234375 7.636719 6.351562 7.609375 6.449219 7.550781 C 6.558594 7.492188 6.644531 7.429688 6.71875 7.351562 C 6.789062 7.277344 6.847656 7.203125 6.894531 7.128906 C 6.9375 7.050781 6.96875 6.988281 6.984375 6.949219 C 7 6.914062 7.027344 6.898438 7.066406 6.898438 C 7.113281 6.898438 7.132812 6.933594 7.132812 7 C 7.132812 7.0625 7.113281 7.160156 7.066406 7.292969 C 7.027344 7.417969 6.960938 7.546875 6.867188 7.679688 C 6.773438 7.804688 6.652344 7.917969 6.5 8.015625 C 6.355469 8.113281 6.179688 8.160156 5.96875 8.160156 Z M 6.351562 4.894531 C 6.316406 4.894531 6.253906 4.933594 6.160156 5.007812 C 6.070312 5.074219 5.972656 5.179688 5.867188 5.316406 C 5.769531 5.453125 5.671875 5.621094 5.585938 5.816406 C 5.5 6.003906 5.449219 6.21875 5.425781 6.460938 C 5.757812 6.378906 6.023438 6.253906 6.21875 6.082031 C 6.414062 5.910156 6.507812 5.65625 6.507812 5.324219 C 6.507812 5.160156 6.488281 5.046875 6.449219 4.988281 C 6.414062 4.925781 6.378906 4.894531 6.351562 4.894531 Z M 8.933594 6.433594 C 9.058594 6.480469 9.175781 6.523438 9.285156 6.5625 C 9.398438 6.601562 9.492188 6.652344 9.578125 6.707031 C 9.660156 6.765625 9.726562 6.835938 9.777344 6.914062 C 9.828125 6.988281 9.851562 7.085938 9.851562 7.199219 C 9.851562 7.335938 9.820312 7.464844 9.761719 7.585938 C 9.703125 7.707031 9.621094 7.8125 9.511719 7.902344 C 9.398438 7.996094 9.261719 8.066406 9.101562 8.117188 C 8.945312 8.175781 8.769531 8.203125 8.578125 8.203125 C 8.359375 8.203125 8.183594 8.179688 8.050781 8.136719 C 7.917969 8.09375 7.816406 8.046875 7.742188 7.988281 C 7.671875 7.933594 7.625 7.875 7.601562 7.816406 C 7.578125 7.761719 7.566406 7.714844 7.566406 7.679688 C 7.566406 7.609375 7.582031 7.535156 7.609375 7.457031 C 7.636719 7.371094 7.691406 7.277344 7.769531 7.179688 C 7.800781 7.140625 7.835938 7.105469 7.875 7.070312 C 7.953125 7 8.03125 6.957031 8.109375 6.941406 C 8.097656 7.074219 8.113281 7.179688 8.152344 7.265625 C 8.195312 7.347656 8.25 7.410156 8.320312 7.457031 C 8.390625 7.503906 8.46875 7.535156 8.550781 7.550781 C 8.640625 7.566406 8.722656 7.578125 8.800781 7.578125 C 8.878906 7.578125 8.957031 7.566406 9.035156 7.542969 C 9.117188 7.519531 9.195312 7.492188 9.261719 7.457031 C 9.328125 7.417969 9.378906 7.375 9.417969 7.328125 C 9.464844 7.277344 9.484375 7.222656 9.484375 7.164062 C 9.484375 7.101562 9.460938 7.050781 9.410156 7.007812 C 9.359375 6.96875 9.296875 6.9375 9.21875 6.914062 C 9.144531 6.886719 9.066406 6.867188 8.976562 6.855469 C 8.894531 6.835938 8.8125 6.820312 8.734375 6.804688 C 8.65625 6.785156 8.550781 6.761719 8.417969 6.734375 C 8.289062 6.699219 8.164062 6.648438 8.035156 6.578125 C 7.914062 6.511719 7.804688 6.417969 7.710938 6.304688 C 7.621094 6.191406 7.578125 6.039062 7.578125 5.847656 C 7.578125 5.632812 7.628906 5.441406 7.734375 5.28125 C 7.847656 5.117188 7.980469 4.980469 8.136719 4.871094 C 8.296875 4.753906 8.464844 4.667969 8.644531 4.613281 C 8.820312 4.554688 8.980469 4.527344 9.117188 4.527344 C 9.191406 4.527344 9.269531 4.539062 9.351562 4.558594 C 9.433594 4.578125 9.511719 4.613281 9.585938 4.664062 C 9.65625 4.710938 9.714844 4.773438 9.761719 4.851562 C 9.8125 4.933594 9.835938 5.035156 9.835938 5.160156 C 9.835938 5.289062 9.824219 5.390625 9.800781 5.472656 C 9.785156 5.546875 9.757812 5.605469 9.71875 5.652344 C 9.683594 5.691406 9.644531 5.71875 9.59375 5.730469 C 9.542969 5.742188 9.484375 5.746094 9.417969 5.746094 C 9.375 5.746094 9.332031 5.742188 9.292969 5.730469 C 9.261719 5.71875 9.222656 5.707031 9.183594 5.695312 C 9.144531 5.683594 9.109375 5.664062 9.078125 5.632812 C 9.132812 5.566406 9.175781 5.5 9.203125 5.4375 C 9.234375 5.375 9.253906 5.296875 9.253906 5.203125 C 9.253906 5.125 9.230469 5.054688 9.183594 4.988281 C 9.144531 4.925781 9.078125 4.894531 8.984375 4.894531 C 8.886719 4.894531 8.789062 4.914062 8.695312 4.957031 C 8.605469 4.996094 8.523438 5.050781 8.453125 5.117188 C 8.386719 5.1875 8.328125 5.269531 8.285156 5.359375 C 8.246094 5.445312 8.226562 5.539062 8.226562 5.644531 C 8.226562 5.796875 8.28125 5.945312 8.394531 6.082031 C 8.511719 6.21875 8.691406 6.335938 8.933594 6.433594 Z M 11.453125 8.160156 C 11.0625 8.160156 10.761719 8.027344 10.550781 7.757812 C 10.339844 7.488281 10.234375 7.136719 10.234375 6.699219 C 10.234375 6.398438 10.277344 6.113281 10.359375 5.847656 C 10.449219 5.582031 10.566406 5.347656 10.710938 5.152344 C 10.855469 4.957031 11.023438 4.808594 11.210938 4.699219 C 11.40625 4.582031 11.609375 4.527344 11.820312 4.527344 C 12.023438 4.527344 12.199219 4.601562 12.34375 4.757812 C 12.488281 4.90625 12.5625 5.121094 12.5625 5.402344 C 12.5625 5.585938 12.523438 5.769531 12.445312 5.953125 C 12.367188 6.128906 12.265625 6.289062 12.136719 6.433594 C 12.015625 6.570312 11.878906 6.683594 11.726562 6.769531 C 11.578125 6.855469 11.433594 6.898438 11.292969 6.898438 C 11.207031 6.898438 11.128906 6.886719 11.070312 6.863281 C 11.007812 6.839844 10.953125 6.804688 10.902344 6.761719 C 10.917969 7.085938 10.988281 7.316406 11.109375 7.449219 C 11.234375 7.574219 11.390625 7.636719 11.585938 7.636719 C 11.71875 7.636719 11.835938 7.609375 11.9375 7.550781 C 12.042969 7.492188 12.128906 7.429688 12.203125 7.351562 C 12.273438 7.277344 12.332031 7.203125 12.378906 7.128906 C 12.421875 7.050781 12.453125 6.988281 12.46875 6.949219 C 12.488281 6.914062 12.515625 6.898438 12.554688 6.898438 C 12.597656 6.898438 12.621094 6.933594 12.621094 7 C 12.621094 7.0625 12.597656 7.160156 12.554688 7.292969 C 12.515625 7.417969 12.449219 7.546875 12.351562 7.679688 C 12.257812 7.804688 12.136719 7.917969 11.984375 8.015625 C 11.839844 8.113281 11.664062 8.160156 11.453125 8.160156 Z M 11.835938 4.894531 C 11.804688 4.894531 11.738281 4.933594 11.644531 5.007812 C 11.554688 5.074219 11.457031 5.179688 11.351562 5.316406 C 11.253906 5.453125 11.160156 5.621094 11.070312 5.816406 C 10.984375 6.003906 10.933594 6.21875 10.910156 6.460938 C 11.246094 6.378906 11.507812 6.253906 11.703125 6.082031 C 11.898438 5.910156 11.996094 5.65625 11.996094 5.324219 C 11.996094 5.160156 11.976562 5.046875 11.9375 4.988281 C 11.898438 4.925781 11.863281 4.894531 11.835938 4.894531 Z M 15.363281 5.429688 C 15.363281 5.507812 15.339844 5.589844 15.296875 5.675781 C 15.257812 5.757812 15.207031 5.835938 15.144531 5.910156 C 15.085938 5.984375 15.015625 6.050781 14.9375 6.105469 C 14.863281 6.160156 14.796875 6.191406 14.730469 6.203125 C 14.773438 6.023438 14.789062 5.886719 14.769531 5.789062 C 14.753906 5.691406 14.726562 5.621094 14.6875 5.574219 C 14.644531 5.523438 14.585938 5.496094 14.519531 5.488281 C 14.421875 5.488281 14.324219 5.546875 14.230469 5.667969 C 14.140625 5.785156 14.0625 5.925781 13.996094 6.097656 C 13.929688 6.265625 13.875 6.445312 13.835938 6.640625 C 13.796875 6.828125 13.777344 7 13.777344 7.15625 C 13.773438 7.265625 13.777344 7.371094 13.785156 7.472656 C 13.792969 7.558594 13.800781 7.648438 13.8125 7.738281 C 13.828125 7.832031 13.851562 7.902344 13.878906 7.953125 C 13.84375 7.984375 13.789062 8.019531 13.710938 8.058594 C 13.640625 8.097656 13.5625 8.125 13.476562 8.136719 C 13.402344 8.148438 13.328125 8.132812 13.261719 8.09375 C 13.199219 8.050781 13.167969 7.964844 13.160156 7.835938 C 13.152344 7.707031 13.140625 7.566406 13.136719 7.414062 C 13.136719 7.253906 13.136719 7.09375 13.136719 6.941406 C 13.140625 6.78125 13.148438 6.621094 13.152344 6.46875 C 13.160156 6.3125 13.167969 6.171875 13.179688 6.039062 C 13.1875 5.785156 13.195312 5.589844 13.195312 5.453125 C 13.195312 5.316406 13.191406 5.183594 13.1875 5.058594 C 13.1875 5.035156 13.222656 5.003906 13.296875 4.964844 C 13.371094 4.917969 13.457031 4.878906 13.546875 4.84375 C 13.640625 4.808594 13.726562 4.789062 13.804688 4.785156 C 13.882812 4.777344 13.921875 4.796875 13.921875 4.835938 C 13.921875 4.898438 13.910156 5.023438 13.894531 5.214844 C 13.882812 5.398438 13.867188 5.589844 13.84375 5.789062 C 13.882812 5.679688 13.933594 5.5625 13.996094 5.4375 C 14.0625 5.3125 14.136719 5.195312 14.21875 5.085938 C 14.304688 4.976562 14.398438 4.886719 14.503906 4.816406 C 14.609375 4.742188 14.726562 4.707031 14.855469 4.707031 C 14.953125 4.707031 15.035156 4.738281 15.09375 4.800781 C 15.164062 4.863281 15.214844 4.9375 15.253906 5.015625 C 15.292969 5.097656 15.320312 5.175781 15.335938 5.257812 C 15.355469 5.335938 15.363281 5.394531 15.363281 5.429688 Z M 16.703125 7.621094 C 16.753906 7.621094 16.820312 7.527344 16.90625 7.34375 C 16.988281 7.160156 17.066406 6.941406 17.136719 6.683594 C 17.214844 6.425781 17.277344 6.160156 17.320312 5.882812 C 17.371094 5.609375 17.386719 5.375 17.363281 5.1875 C 17.351562 5.125 17.335938 5.074219 17.3125 5.03125 C 17.296875 4.992188 17.273438 4.949219 17.246094 4.902344 C 17.28125 4.859375 17.320312 4.824219 17.371094 4.800781 C 17.421875 4.773438 17.46875 4.753906 17.511719 4.742188 C 17.570312 4.722656 17.625 4.710938 17.679688 4.707031 C 17.8125 4.699219 17.910156 4.722656 17.972656 4.773438 C 18.003906 4.808594 18.023438 4.890625 18.023438 5.015625 C 18.023438 5.140625 18.007812 5.289062 17.980469 5.460938 C 17.957031 5.628906 17.925781 5.804688 17.878906 5.996094 C 17.839844 6.179688 17.796875 6.347656 17.746094 6.503906 C 17.695312 6.652344 17.636719 6.816406 17.5625 6.992188 C 17.492188 7.164062 17.414062 7.332031 17.339844 7.492188 C 17.261719 7.644531 17.183594 7.78125 17.105469 7.894531 C 17.027344 8.003906 16.960938 8.070312 16.90625 8.09375 C 16.789062 8.136719 16.671875 8.160156 16.554688 8.160156 C 16.441406 8.160156 16.375 8.148438 16.347656 8.117188 C 16.335938 8.105469 16.308594 8.066406 16.269531 7.996094 C 16.230469 7.929688 16.1875 7.839844 16.136719 7.730469 C 16.09375 7.621094 16.042969 7.496094 15.988281 7.351562 C 15.9375 7.203125 15.894531 7.046875 15.855469 6.878906 C 15.816406 6.714844 15.789062 6.535156 15.769531 6.339844 C 15.753906 6.144531 15.734375 5.957031 15.710938 5.773438 C 15.695312 5.582031 15.671875 5.410156 15.636719 5.246094 C 15.605469 5.085938 15.554688 4.957031 15.488281 4.851562 L 15.878906 4.6875 C 15.914062 4.671875 15.953125 4.65625 15.996094 4.644531 C 16.039062 4.628906 16.085938 4.625 16.128906 4.628906 C 16.171875 4.636719 16.210938 4.65625 16.246094 4.699219 C 16.285156 4.730469 16.308594 4.796875 16.320312 4.886719 C 16.332031 4.988281 16.339844 5.113281 16.347656 5.257812 C 16.355469 5.398438 16.367188 5.546875 16.371094 5.703125 C 16.382812 5.859375 16.394531 6.011719 16.40625 6.167969 C 16.414062 6.316406 16.425781 6.449219 16.4375 6.570312 C 16.449219 6.699219 16.460938 6.824219 16.480469 6.949219 C 16.5 7.074219 16.523438 7.1875 16.546875 7.285156 C 16.574219 7.382812 16.597656 7.460938 16.621094 7.523438 C 16.648438 7.589844 16.675781 7.621094 16.703125 7.621094 Z M 18.511719 5.023438 C 18.511719 4.988281 18.558594 4.953125 18.648438 4.914062 C 18.734375 4.871094 18.832031 4.839844 18.9375 4.816406 C 19.050781 4.789062 19.148438 4.773438 19.238281 4.773438 C 19.332031 4.769531 19.378906 4.789062 19.378906 4.835938 C 19.378906 4.921875 19.375 5.042969 19.363281 5.203125 C 19.351562 5.359375 19.339844 5.527344 19.320312 5.703125 C 19.304688 5.875 19.289062 6.050781 19.273438 6.226562 C 19.253906 6.398438 19.246094 6.546875 19.238281 6.664062 C 19.226562 6.792969 19.214844 6.929688 19.207031 7.078125 C 19.195312 7.203125 19.1875 7.34375 19.179688 7.5 C 19.175781 7.652344 19.175781 7.8125 19.179688 7.972656 C 19.179688 8 19.152344 8.03125 19.097656 8.058594 C 19.042969 8.085938 18.980469 8.105469 18.914062 8.117188 C 18.847656 8.136719 18.78125 8.144531 18.722656 8.144531 C 18.660156 8.144531 18.628906 8.132812 18.621094 8.109375 C 18.609375 8.085938 18.597656 8.046875 18.589844 7.988281 C 18.578125 7.933594 18.566406 7.851562 18.554688 7.75 C 18.542969 7.640625 18.535156 7.503906 18.53125 7.335938 C 18.523438 7.164062 18.527344 6.957031 18.539062 6.71875 C 18.5625 6.242188 18.5625 5.875 18.546875 5.617188 C 18.53125 5.355469 18.519531 5.15625 18.511719 5.023438 Z M 19.097656 3.3125 C 19.207031 3.3125 19.3125 3.347656 19.414062 3.417969 C 19.515625 3.484375 19.5625 3.578125 19.5625 3.691406 C 19.5625 3.777344 19.542969 3.863281 19.496094 3.941406 C 19.457031 4.023438 19.40625 4.09375 19.347656 4.15625 C 19.285156 4.21875 19.214844 4.269531 19.136719 4.3125 C 19.0625 4.34375 18.988281 4.363281 18.921875 4.363281 C 18.832031 4.363281 18.761719 4.347656 18.707031 4.320312 C 18.648438 4.285156 18.605469 4.25 18.570312 4.207031 C 18.542969 4.164062 18.523438 4.113281 18.511719 4.0625 C 18.503906 4.011719 18.496094 3.960938 18.496094 3.914062 C 18.496094 3.859375 18.503906 3.796875 18.523438 3.726562 C 18.539062 3.652344 18.570312 3.585938 18.613281 3.527344 C 18.65625 3.464844 18.71875 3.414062 18.796875 3.375 C 18.875 3.335938 18.976562 3.3125 19.097656 3.3125 Z M 18.886719 4.113281 C 18.921875 4.113281 18.957031 4.101562 18.996094 4.078125 C 19.042969 4.050781 19.082031 4.019531 19.113281 3.984375 C 19.152344 3.949219 19.183594 3.914062 19.207031 3.871094 C 19.234375 3.832031 19.246094 3.796875 19.246094 3.769531 C 19.246094 3.722656 19.226562 3.699219 19.179688 3.699219 C 19.152344 3.699219 19.117188 3.710938 19.070312 3.734375 C 19.03125 3.757812 18.992188 3.785156 18.957031 3.820312 C 18.917969 3.851562 18.882812 3.882812 18.855469 3.925781 C 18.832031 3.957031 18.820312 3.992188 18.820312 4.027344 C 18.820312 4.085938 18.84375 4.113281 18.886719 4.113281 Z M 22.363281 7.628906 C 22.375 7.667969 22.390625 7.707031 22.414062 7.738281 C 22.429688 7.769531 22.453125 7.796875 22.480469 7.824219 C 22.515625 7.847656 22.554688 7.863281 22.597656 7.867188 C 22.558594 7.949219 22.519531 8.003906 22.480469 8.03125 C 22.460938 8.050781 22.441406 8.0625 22.421875 8.066406 C 22.371094 8.082031 22.296875 8.09375 22.199219 8.09375 C 22.097656 8.09375 22 8.0625 21.90625 7.996094 C 21.871094 7.96875 21.84375 7.925781 21.8125 7.867188 C 21.785156 7.824219 21.761719 7.761719 21.738281 7.679688 C 21.722656 7.59375 21.707031 7.484375 21.699219 7.351562 C 21.621094 7.523438 21.53125 7.664062 21.429688 7.765625 C 21.335938 7.863281 21.242188 7.933594 21.148438 7.980469 C 21.042969 8.042969 20.933594 8.082031 20.824219 8.09375 C 20.683594 8.105469 20.550781 8.082031 20.421875 8.023438 C 20.300781 7.960938 20.195312 7.867188 20.105469 7.75 C 20.023438 7.621094 19.957031 7.472656 19.914062 7.292969 C 19.871094 7.117188 19.855469 6.914062 19.871094 6.691406 C 19.890625 6.457031 19.933594 6.246094 20.003906 6.0625 C 20.078125 5.882812 20.164062 5.71875 20.265625 5.574219 C 20.363281 5.429688 20.46875 5.3125 20.582031 5.214844 C 20.691406 5.109375 20.796875 5.027344 20.898438 4.964844 C 21.003906 4.894531 21.09375 4.847656 21.164062 4.816406 C 21.242188 4.785156 21.292969 4.765625 21.3125 4.757812 C 21.375 4.742188 21.429688 4.734375 21.472656 4.742188 C 21.515625 4.746094 21.554688 4.773438 21.589844 4.816406 C 21.601562 4.835938 21.613281 4.855469 21.632812 4.878906 C 21.640625 4.902344 21.65625 4.933594 21.671875 4.972656 C 21.6875 5.007812 21.703125 5.046875 21.714844 5.09375 C 21.582031 5.15625 21.457031 5.226562 21.339844 5.308594 C 21.222656 5.382812 21.113281 5.472656 21.015625 5.582031 C 20.917969 5.691406 20.835938 5.824219 20.765625 5.976562 C 20.691406 6.132812 20.636719 6.320312 20.597656 6.546875 C 20.542969 6.828125 20.554688 7.050781 20.640625 7.222656 C 20.726562 7.394531 20.847656 7.46875 20.996094 7.4375 C 21.085938 7.410156 21.171875 7.355469 21.257812 7.277344 C 21.328125 7.207031 21.402344 7.105469 21.480469 6.964844 C 21.5625 6.828125 21.640625 6.640625 21.714844 6.398438 C 21.742188 6.054688 21.765625 5.785156 21.78125 5.589844 C 21.804688 5.390625 21.824219 5.238281 21.839844 5.136719 C 21.863281 5.015625 21.878906 4.9375 21.890625 4.894531 C 21.90625 4.867188 21.941406 4.839844 21.988281 4.816406 C 22.039062 4.789062 22.09375 4.765625 22.15625 4.75 C 22.21875 4.730469 22.273438 4.722656 22.324219 4.722656 C 22.371094 4.71875 22.40625 4.71875 22.421875 4.722656 C 22.433594 4.730469 22.441406 4.800781 22.441406 4.9375 C 22.441406 5.070312 22.433594 5.238281 22.421875 5.445312 C 22.417969 5.644531 22.410156 5.867188 22.398438 6.105469 C 22.386719 6.34375 22.375 6.566406 22.363281 6.777344 C 22.359375 6.988281 22.351562 7.175781 22.347656 7.335938 C 22.347656 7.492188 22.351562 7.589844 22.363281 7.628906 Z M 22.363281 7.628906 "/>
</g>
</svg>
